:SAMPLES-PER-SECOND 30
:FULLY-SPECIFIED
:DEGREES
355
root  -4.06751 41.0043 -0.333389 3.67279 -81.8668 -0.335205
RightUpLeg  0.619685 -1.43858 -0.992378
RightLeg  -6.52781 -30.2146 4.2643
RightFoot  2.76162 -0.137561 1.26416
RightToes  -3.11842e-008 1.75238e-005 3.56266e-009
Spine  -2.69836 -0.612762 -4.32068
Spine1  12.6038 -1.28203 3.10172
HEad  0.50706 1.63242 4.10045
LeftShoulder1  2.08612 -4.18234 -20.7374
LeftArm  -44.4198 -15.3479 -40.4889
LeftForeArm  -20.5172 -60.7342 -22.4462
LeftHand  -0.0215953 0.369909 0.491516
RightShoulder  2.30759 4.95179 20.9891
RightArm  -41.8091 14.1582 16.4632
RightForeArm  -35.304 60.8015 23.4079
RightHand  -0.519698 5.30522 -5.94077
LeftUpLeg  -2.14206 0.695023 3.42449
LeftLeg  -3.97124 6.84993 -0.755453
LeftFoot  3.72761 0.430494 -3.36964
LeftToes  4.78904e-008 1.4679e-008 1.35657e-009
356
root  -4.0979 41.0004 -0.303765 3.56696 -81.8877 -0.435303
RightUpLeg  0.781823 -1.45472 -1.00323
RightLeg  -6.24244 -30.1279 4.06846
RightFoot  2.60725 -0.15123 1.38133
RightToes  -3.11842e-008 1.75238e-005 3.56266e-009
Spine  -2.55253 -0.693078 -4.21357
Spine1  11.9986 -1.3269 2.97722
HEad  -0.395393 1.22659 4.06213
LeftShoulder1  2.12356 -4.24779 -21.0083
LeftArm  -43.3548 -14.7137 -41.301
LeftForeArm  -16.8482 -61.8909 -23.3633
LeftHand  0.0154138 0.167434 -0.368418
RightShoulder  2.29856 4.81925 21.3361
RightArm  -41.0837 13.9262 16.6652
RightForeArm  -33.5563 62.4162 25.0593
RightHand  -0.543161 5.31574 -6.19037
LeftUpLeg  -1.95416 0.772861 3.43784
LeftLeg  -3.74374 6.76658 -0.761064
LeftFoot  3.45335 0.442275 -3.54677
LeftToes  4.78904e-008 1.4679e-008 1.35657e-009
357
root  -4.13928 40.9977 -0.280764 3.55695 -81.7697 -0.533264
RightUpLeg  0.951524 -1.39008 -0.970001
RightLeg  -6.14975 -30.2374 3.93134
RightFoot  2.52596 -0.162516 1.47773
RightToes  -3.11842e-008 1.75238e-005 3.56266e-009
Spine  -2.98637 -0.854825 -4.22899
Spine1  12.0371 -1.50159 3.0413
HEad  -1.24473 0.981412 3.83467
LeftShoulder1  2.16421 -4.33902 -21.2201
LeftArm  -42.5348 -14.4944 -41.5256
LeftForeArm  -14.5617 -62.2355 -23.5545
LeftHand  0.028609 0.128084 -0.653677
RightShoulder  2.37824 5.09084 21.3951
RightArm  -40.6413 13.6716 16.631
RightForeArm  -32.2516 63.5285 26.325
RightHand  -0.548251 5.27129 -6.26846
LeftUpLeg  -1.89434 0.796676 3.43832
LeftLeg  -3.49681 6.68737 -0.72447
LeftFoot  3.18096 0.452374 -3.72202
LeftToes  4.78904e-008 1.4679e-008 1.35657e-009
358
root  -4.15856 40.994 -0.267271 3.90051 -81.5703 -1.03217
RightUpLeg  1.18994 -1.35134 -0.884738
RightLeg  -6.20266 -30.4802 3.94843
RightFoot  2.46647 -0.16287 1.45874
RightToes  -3.11842e-008 1.75238e-005 3.56266e-009
Spine  -2.90368 -0.923198 -4.29498
Spine1  11.541 -1.64823 3.347
HEad  -1.66627 0.870239 3.86019
LeftShoulder1  2.25999 -4.65713 -21.328
LeftArm  -42.1707 -14.5815 -41.7683
LeftForeArm  -12.1953 -62.2054 -23.3195
LeftHand  0.0459564 0.104625 -1.03119
RightShoulder  2.38987 5.19302 21.1878
RightArm  -40.1777 13.5865 16.6343
RightForeArm  -30.7021 64.0715 26.9369
RightHand  -0.561129 5.27215 -6.4069
LeftUpLeg  -1.8825 0.890887 3.50819
LeftLeg  -3.17454 6.36535 -0.683169
LeftFoot  2.98205 0.451736 -3.73879
LeftToes  4.78904e-008 1.4679e-008 1.35657e-009
359
root  -4.20812 40.9926 -0.257268 2.78094 -81.6652 -0.292664
RightUpLeg  1.64565 -1.47673 -0.995313
RightLeg  -6.10802 -30.2957 3.84312
RightFoot  2.36176 -0.165772 1.50363
RightToes  -3.11842e-008 1.75238e-005 3.56266e-009
Spine  -2.98109 -0.869251 -4.29493
Spine1  11.5372 -1.54731 3.21932
HEad  -2.17586 0.657892 4.06368
LeftShoulder1  2.30528 -4.85544 -21.2049
LeftArm  -41.3707 -14.4414 -41.7168
LeftForeArm  -10.3029 -62.402 -23.3668
LeftHand  0.0354154 0.0016004 -0.770795
RightShoulder  2.35051 5.05716 21.1634
RightArm  -40.1388 14.2785 16.7521
RightForeArm  -29.7464 63.912 26.6774
RightHand  -0.520045 5.35516 -5.9195
LeftUpLeg  -1.26423 0.961504 3.43687
LeftLeg  -3.35729 6.36415 -0.785602
LeftFoot  2.91193 0.452418 -3.76429
LeftToes  4.78904e-008 1.4679e-008 1.35657e-009
360
root  -4.22103 40.9923 -0.254959 2.64819 -81.6167 -0.345337
RightUpLeg  1.82472 -1.46724 -0.969157
RightLeg  -5.99317 -30.3646 3.7381
RightFoot  2.30944 -0.170763 1.58546
RightToes  -3.11842e-008 1.75238e-005 3.56266e-009
Spine  -2.70778 -0.841163 -4.07546
Spine1  10.9088 -1.45122 2.97572
HEad  -2.50382 0.478407 3.97751
LeftShoulder1  2.32397 -4.94457 -21.1305
LeftArm  -41.0411 -14.8625 -41.9792
LeftForeArm  -9.1757 -62.126 -22.9605
LeftHand  0.0390563 -0.28978 -0.777624
RightShoulder  2.43622 5.34312 21.2495
RightArm  -40.1084 14.1817 16.5142
RightForeArm  -29.5526 64.0428 26.8357
RightHand  -0.539908 5.63436 -5.99416
LeftUpLeg  -1.06093 0.978325 3.4337
LeftLeg  -3.32173 6.26882 -0.757934
LeftFoot  2.84289 0.438593 -3.6919
LeftToes  4.78904e-008 1.4679e-008 1.35657e-009
361
root  -4.23093 40.9929 -0.25338 2.72925 -81.6213 -0.603027
RightUpLeg  1.99088 -1.46492 -0.924041
RightLeg  -5.90169 -30.3575 3.68457
RightFoot  2.22703 -0.168745 1.54334
RightToes  -3.11842e-008 1.75238e-005 3.56266e-009
Spine  -2.53814 -0.738668 -3.79861
Spine1  10.6323 -1.28538 2.70479
HEad  -2.95483 0.12474 4.15146
LeftShoulder1  2.31028 -4.95486 -20.9229
LeftArm  -40.0238 -14.6451 -42.2395
LeftForeArm  -8.54798 -62.6541 -23.4843
LeftHand  0.0430127 0.0291114 -0.953522
RightShoulder  2.41446 5.28487 21.1798
RightArm  -40.1426 14.4546 16.5126
RightForeArm  -29.1068 64.0319 26.7967
RightHand  -0.514785 5.68533 -5.70024
LeftUpLeg  -0.944173 0.981647 3.43426
LeftLeg  -3.13292 6.24231 -0.664598
LeftFoot  2.74505 0.435351 -3.65783
LeftToes  4.78904e-008 1.4679e-008 1.35657e-009
362
root  -4.24714 40.9964 -0.244291 2.12177 -81.9037 -0.260559
RightUpLeg  2.19704 -1.52645 -1.00004
RightLeg  -5.67787 -29.975 3.51058
RightFoot  2.16651 -0.175552 1.60669
RightToes  -3.11842e-008 1.75238e-005 3.56266e-009
Spine  -2.55088 -0.527413 -3.67062
Spine1  10.6521 -1.04945 2.63008
HEad  -3.04649 -0.196362 4.41355
LeftShoulder1  2.38154 -5.22806 -20.8824
LeftArm  -39.1544 -14.0376 -42.1502
LeftForeArm  -6.96096 -63.4343 -24.2298
LeftHand  -0.00635278 0.122156 0.150641
RightShoulder  2.39225 5.24575 21.0399
RightArm  -39.7355 14.6642 16.7554
RightForeArm  -28.5933 64.4285 27.2895
RightHand  -0.618541 5.60951 -6.83427
LeftUpLeg  -0.547595 0.92947 3.34731
LeftLeg  -3.17348 6.6566 -0.61702
LeftFoot  2.58283 0.461503 -3.90684
LeftToes  4.78904e-008 1.4679e-008 1.35657e-009
363
root  -4.29272 41.0012 -0.194065 0.911682 -82.74 0.70343
RightUpLeg  2.205 -1.72356 -1.28364
RightLeg  -4.96534 -28.7526 3.09181
RightFoot  2.03264 -0.200875 1.83105
RightToes  -3.11842e-008 1.75238e-005 3.56266e-009
Spine  -2.65597 -0.141357 -3.06803
Spine1  10.6735 -0.502137 2.01559
HEad  -3.30005 -0.543242 4.11061
LeftShoulder1  2.34989 -5.13521 -20.803
LeftArm  -37.8913 -13.1415 -42.5288
LeftForeArm  -4.17323 -64.7004 -25.557
LeftHand  -0.0830021 0.912453 2.02046
RightShoulder  2.38268 5.23144 20.9707
RightArm  -39.3647 14.97 17.2685
RightForeArm  -27.2072 64.8155 27.7441
RightHand  -0.615618 5.34242 -6.92963
LeftUpLeg  0.0213287 0.745148 3.07981
LeftLeg  -3.2979 7.74674 -0.561961
LeftFoot  2.37031 0.468427 -4.01784
LeftToes  4.78904e-008 1.4679e-008 1.35657e-009
364
root  -4.33628 40.9983 -0.0929036 0.446228 -84.3909 1.05811
RightUpLeg  1.72921 -1.8424 -1.61486
RightLeg  -3.66883 -26.6964 2.30687
RightFoot  1.80117 -0.231294 2.11386
RightToes  -3.11842e-008 1.75238e-005 3.56266e-009
Spine  -2.57527 0.415167 -1.95757
Spine1  10.0434 0.271234 1.13756
HEad  -3.60506 -0.90749 3.35492
LeftShoulder1  2.4261 -5.30582 -21.1684
LeftArm  -36.4758 -10.4838 -42.4842
LeftForeArm  1.72634 -67.189 -28.5826
LeftHand  -0.190703 1.16732 5.14113
RightShoulder  2.3747 5.26726 20.754
RightArm  -37.7826 14.9713 18.2243
RightForeArm  -25.1088 65.9706 29.3066
RightHand  -0.8185 5.78037 -8.81677
LeftUpLeg  0.361166 0.59497 2.78548
LeftLeg  -2.95741 9.61359 -0.529393
LeftFoot  1.72391 0.488833 -4.35894
LeftToes  4.78904e-008 1.4679e-008 1.35657e-009
